<svg viewBox="0 0 217 66" xmlns="http://www.w3.org/2000/svg" xmlns:xlink="http://www.w3.org/1999/xlink" width="217.000000" height="66.000000" fill="none" customFrame="#000000">
	<path id="Skill" d="M19.904 58.584C16.4053 58.584 13.056 58.0933 9.856 57.112C6.656 56.088 4.11733 54.7867 2.24 53.208L5.12 46.744C6.912 48.152 9.13067 49.3253 11.776 50.264C14.4213 51.2027 17.1307 51.672 19.904 51.672C22.2507 51.672 24.1493 51.416 25.6 50.904C27.0507 50.392 28.1173 49.7093 28.8 48.856C29.4827 47.96 29.824 46.9573 29.824 45.848C29.824 44.4827 29.3333 43.3947 28.352 42.584C27.3707 41.7307 26.0907 41.0693 24.512 40.6C22.976 40.088 21.248 39.6187 19.328 39.192C17.4507 38.7653 15.552 38.2747 13.632 37.72C11.7547 37.1227 10.0267 36.376 8.448 35.48C6.912 34.5413 5.65333 33.304 4.672 31.768C3.69067 30.232 3.2 28.2693 3.2 25.88C3.2 23.448 3.84 21.2293 5.12 19.224C6.44267 17.176 8.42667 15.5547 11.072 14.36C13.76 13.1227 17.152 12.504 21.248 12.504C23.936 12.504 26.6027 12.8453 29.248 13.528C31.8933 14.2107 34.1973 15.192 36.16 16.472L33.536 22.936C31.5307 21.7413 29.4613 20.8667 27.328 20.312C25.1947 19.7147 23.1467 19.416 21.184 19.416C18.88 19.416 17.0027 19.6933 15.552 20.248C14.144 20.8027 13.0987 21.528 12.416 22.424C11.776 23.32 11.456 24.344 11.456 25.496C11.456 26.8613 11.9253 27.9707 12.864 28.824C13.8453 29.6347 15.104 30.2747 16.64 30.744C18.2187 31.2133 19.968 31.6827 21.888 32.152C23.808 32.5787 25.7067 33.0693 27.584 33.624C29.504 34.1787 31.232 34.904 32.768 35.8C34.3467 36.696 35.6053 37.912 36.544 39.448C37.5253 40.984 38.016 42.9253 38.016 45.272C38.016 47.6613 37.3547 49.88 36.032 51.928C34.752 53.9333 32.768 55.5547 30.08 56.792C27.392 57.9867 24 58.584 19.904 58.584ZM52.026 50.328L52.218 40.28L70.074 23.768L79.674 23.768L64.506 39L60.282 42.52L52.026 50.328ZM45.498 57.944L45.498 10.456L53.498 10.456L53.498 57.944L45.498 57.944ZM71.29 57.944L58.81 42.52L63.866 36.12L81.018 57.944L71.29 57.944ZM86.123 57.944L86.123 23.768L94.123 23.768L94.123 57.944L86.123 57.944ZM90.155 18.136C88.6617 18.136 87.4243 17.6667 86.443 16.728C85.5043 15.7893 85.035 14.6587 85.035 13.336C85.035 11.9707 85.5043 10.84 86.443 9.944C87.4243 9.00533 88.6617 8.536 90.155 8.536C91.6483 8.536 92.8643 8.984 93.803 9.88C94.7843 10.7333 95.275 11.8213 95.275 13.144C95.275 14.552 94.8057 15.7467 93.867 16.728C92.9283 17.6667 91.691 18.136 90.155 18.136ZM104.623 57.944L104.623 10.456L112.623 10.456L112.623 57.944L104.623 57.944ZM123.123 57.944L123.123 10.456L131.123 10.456L131.123 57.944L123.123 57.944Z" fill="rgb(255,255,255)" fill-rule="nonzero" />
</svg>
